<mxfile host="Electron" modified="2023-05-19T02:40:12.017Z" agent="Mozilla/5.0 (Windows NT 10.0; Win64; x64) AppleWebKit/537.36 (KHTML, like Gecko) draw.io/21.2.8 Chrome/112.0.5615.165 Electron/24.2.0 Safari/537.36" etag="gL6SxE65DU4FEQXSuiqc" version="21.2.8" type="device">
  <diagram id="p1WFtV5cTaJLbCV86L4F" name="Page-1">
    <mxGraphModel dx="1518" dy="740" grid="1" gridSize="10" guides="1" tooltips="1" connect="1" arrows="1" fold="1" page="1" pageScale="1" pageWidth="1169" pageHeight="827" math="0" shadow="0">
      <root>
        <mxCell id="0" />
        <mxCell id="1" parent="0" />
        <mxCell id="Lrtluq5l5MD6FJIpUNIz-151" value=":user.php" style="shape=umlLifeline;perimeter=lifelinePerimeter;whiteSpace=wrap;html=1;container=0;collapsible=0;recursiveResize=0;outlineConnect=0;" parent="1" vertex="1">
          <mxGeometry x="930" y="140" width="156.72" height="540" as="geometry" />
        </mxCell>
        <mxCell id="Lrtluq5l5MD6FJIpUNIz-152" value="clicks sign up" style="html=1;verticalAlign=bottom;endArrow=block;rounded=0;elbow=vertical;" parent="1" edge="1">
          <mxGeometry x="-0.0556" y="3" width="80" relative="1" as="geometry">
            <mxPoint x="202.09" y="240" as="sourcePoint" />
            <mxPoint x="382.09" y="240" as="targetPoint" />
            <mxPoint as="offset" />
          </mxGeometry>
        </mxCell>
        <mxCell id="Lrtluq5l5MD6FJIpUNIz-153" value="" style="shape=umlLifeline;participant=umlActor;perimeter=lifelinePerimeter;whiteSpace=wrap;html=1;container=0;collapsible=0;recursiveResize=0;verticalAlign=top;spacingTop=36;outlineConnect=0;fontFamily=Helvetica;fontSize=12;fontColor=default;align=center;strokeColor=default;fillColor=default;size=50;" parent="1" vertex="1">
          <mxGeometry x="145" y="175.14" width="46.09" height="504.86" as="geometry" />
        </mxCell>
        <mxCell id="Lrtluq5l5MD6FJIpUNIz-154" value="Organization" style="text;html=1;align=center;verticalAlign=middle;resizable=1;points=[];autosize=1;strokeColor=none;fillColor=none;container=0;movable=1;rotatable=1;deletable=1;editable=1;connectable=1;locked=0;" parent="1" vertex="1">
          <mxGeometry x="130" y="140" width="90" height="30" as="geometry" />
        </mxCell>
        <mxCell id="Lrtluq5l5MD6FJIpUNIz-155" value=":org_register.php" style="shape=umlLifeline;perimeter=lifelinePerimeter;whiteSpace=wrap;html=1;container=0;collapsible=0;recursiveResize=0;outlineConnect=0;" parent="1" vertex="1">
          <mxGeometry x="289.9" y="140" width="199.75" height="540" as="geometry" />
        </mxCell>
        <mxCell id="Lrtluq5l5MD6FJIpUNIz-158" value="" style="html=1;points=[];perimeter=orthogonalPerimeter;container=0;" parent="1" vertex="1">
          <mxGeometry x="382.09" y="240" width="15.37" height="180" as="geometry" />
        </mxCell>
        <mxCell id="Lrtluq5l5MD6FJIpUNIz-160" value="&lt;font style=&quot;font-size: 11px;&quot;&gt;:email_verification.php&lt;/font&gt;" style="shape=umlLifeline;perimeter=lifelinePerimeter;whiteSpace=wrap;html=1;container=0;collapsible=0;recursiveResize=0;outlineConnect=0;" parent="1" vertex="1">
          <mxGeometry x="570" y="140" width="190" height="540" as="geometry" />
        </mxCell>
        <mxCell id="Lrtluq5l5MD6FJIpUNIz-161" value="&lt;span style=&quot;font-size: 14px;&quot;&gt;&lt;b&gt;&lt;u&gt;Create account and Selecting Interest&lt;/u&gt;&lt;/b&gt;&lt;/span&gt;" style="text;html=1;align=center;verticalAlign=middle;resizable=0;points=[];autosize=1;strokeColor=none;fillColor=none;" parent="1" vertex="1">
          <mxGeometry x="415.56000000000006" y="90" width="270" height="30" as="geometry" />
        </mxCell>
        <mxCell id="Lrtluq5l5MD6FJIpUNIz-163" value="" style="html=1;points=[];perimeter=orthogonalPerimeter;container=0;" parent="1" vertex="1">
          <mxGeometry x="657.32" y="414" width="15.37" height="76" as="geometry" />
        </mxCell>
        <mxCell id="Lrtluq5l5MD6FJIpUNIz-172" value="" style="html=1;points=[];perimeter=orthogonalPerimeter;container=0;" parent="1" vertex="1">
          <mxGeometry x="1000.68" y="490" width="15.37" height="70" as="geometry" />
        </mxCell>
        <mxCell id="-NEVhXVCDdOZwvtnlFNx-1" value="redirects to email _verification.php" style="html=1;verticalAlign=bottom;endArrow=block;rounded=0;elbow=vertical;entryX=-0.112;entryY=-0.04;entryDx=0;entryDy=0;entryPerimeter=0;" parent="1" target="Lrtluq5l5MD6FJIpUNIz-163" edge="1" source="Lrtluq5l5MD6FJIpUNIz-158">
          <mxGeometry x="-0.0547" y="3" width="80" relative="1" as="geometry">
            <mxPoint x="410" y="413" as="sourcePoint" />
            <mxPoint x="620" y="413" as="targetPoint" />
            <mxPoint as="offset" />
          </mxGeometry>
        </mxCell>
        <mxCell id="-NEVhXVCDdOZwvtnlFNx-20" value="&lt;font style=&quot;font-size: 11px;&quot;&gt;registerUser($email, $userType, $name, $password, $orgName,&amp;nbsp;&amp;nbsp;&lt;/font&gt;" style="html=1;verticalAlign=bottom;endArrow=block;rounded=0;elbow=vertical;" parent="1" edge="1" source="Lrtluq5l5MD6FJIpUNIz-160">
          <mxGeometry x="0.0441" width="80" relative="1" as="geometry">
            <mxPoint x="699.32" y="490" as="sourcePoint" />
            <mxPoint x="1000.68" y="490" as="targetPoint" />
            <mxPoint as="offset" />
          </mxGeometry>
        </mxCell>
        <mxCell id="-NEVhXVCDdOZwvtnlFNx-23" value="" style="html=1;points=[];perimeter=orthogonalPerimeter;container=0;" parent="1" vertex="1">
          <mxGeometry x="657.32" y="560" width="15.37" height="40" as="geometry" />
        </mxCell>
        <mxCell id="-NEVhXVCDdOZwvtnlFNx-35" value="requests email verification code" style="html=1;verticalAlign=bottom;endArrow=open;dashed=1;endSize=8;rounded=0;elbow=vertical;" parent="1" edge="1" target="Lrtluq5l5MD6FJIpUNIz-153">
          <mxGeometry x="0.0164" y="27" relative="1" as="geometry">
            <mxPoint x="657.3199999999999" y="441.5" as="sourcePoint" />
            <mxPoint x="417.32" y="441.5" as="targetPoint" />
            <mxPoint as="offset" />
            <Array as="points" />
          </mxGeometry>
        </mxCell>
        <mxCell id="-NEVhXVCDdOZwvtnlFNx-36" value="&amp;nbsp;&quot;Account Successfully Created.&quot; Redirects to login.php" style="html=1;verticalAlign=bottom;endArrow=open;dashed=1;endSize=8;rounded=0;elbow=vertical;" parent="1" edge="1" target="Lrtluq5l5MD6FJIpUNIz-153">
          <mxGeometry x="0.0179" y="27" relative="1" as="geometry">
            <mxPoint x="644.9999999999999" y="600" as="sourcePoint" />
            <mxPoint x="430" y="601" as="targetPoint" />
            <mxPoint as="offset" />
            <Array as="points" />
          </mxGeometry>
        </mxCell>
        <mxCell id="wmaJupTZ_zYLlx8UUMlA-1" value="$_SESSION[&#39;successStatus&#39;] = &quot;Account Successfully Created.&quot;" style="html=1;verticalAlign=bottom;endArrow=open;dashed=1;endSize=8;rounded=0;elbow=vertical;entryX=1.345;entryY=-0.027;entryDx=0;entryDy=0;entryPerimeter=0;" edge="1" parent="1" target="-NEVhXVCDdOZwvtnlFNx-23">
          <mxGeometry x="-0.0305" y="20" relative="1" as="geometry">
            <mxPoint x="990" y="560" as="sourcePoint" />
            <mxPoint x="779.9999999999999" y="560" as="targetPoint" />
            <mxPoint as="offset" />
            <Array as="points" />
          </mxGeometry>
        </mxCell>
        <mxCell id="wmaJupTZ_zYLlx8UUMlA-2" value="$DisplayForm" style="html=1;verticalAlign=bottom;endArrow=open;dashed=1;endSize=8;rounded=0;elbow=vertical;" edge="1" parent="1">
          <mxGeometry x="-0.0305" y="20" relative="1" as="geometry">
            <mxPoint x="368.57" y="270" as="sourcePoint" />
            <mxPoint x="180.00000000000006" y="270.22" as="targetPoint" />
            <mxPoint as="offset" />
            <Array as="points" />
          </mxGeometry>
        </mxCell>
        <mxCell id="wmaJupTZ_zYLlx8UUMlA-4" value="Fill up sign up form details&amp;nbsp;" style="html=1;verticalAlign=bottom;endArrow=block;rounded=0;elbow=vertical;" edge="1" parent="1">
          <mxGeometry x="-0.1232" width="80" relative="1" as="geometry">
            <mxPoint x="191.09" y="314.5" as="sourcePoint" />
            <mxPoint x="371.09" y="314.5" as="targetPoint" />
            <mxPoint as="offset" />
          </mxGeometry>
        </mxCell>
        <mxCell id="wmaJupTZ_zYLlx8UUMlA-5" value="and click continue" style="text;html=1;align=center;verticalAlign=middle;resizable=0;points=[];autosize=1;strokeColor=none;fillColor=none;" vertex="1" parent="1">
          <mxGeometry x="216.09" y="310" width="120" height="30" as="geometry" />
        </mxCell>
        <mxCell id="wmaJupTZ_zYLlx8UUMlA-6" value="display interests" style="html=1;verticalAlign=bottom;endArrow=open;dashed=1;endSize=8;rounded=0;elbow=vertical;" edge="1" parent="1">
          <mxGeometry x="-0.0305" y="20" relative="1" as="geometry">
            <mxPoint x="370.36999999999995" y="354.5" as="sourcePoint" />
            <mxPoint x="181.80000000000007" y="354.72" as="targetPoint" />
            <mxPoint as="offset" />
            <Array as="points" />
          </mxGeometry>
        </mxCell>
        <mxCell id="wmaJupTZ_zYLlx8UUMlA-7" value="select interests" style="html=1;verticalAlign=bottom;endArrow=block;rounded=0;elbow=vertical;" edge="1" parent="1">
          <mxGeometry x="-0.1232" width="80" relative="1" as="geometry">
            <mxPoint x="186.09" y="400" as="sourcePoint" />
            <mxPoint x="366.09000000000003" y="400" as="targetPoint" />
            <mxPoint as="offset" />
          </mxGeometry>
        </mxCell>
        <mxCell id="wmaJupTZ_zYLlx8UUMlA-8" value="&lt;font style=&quot;font-size: 11px;&quot;&gt;and click sign up&lt;/font&gt;" style="text;html=1;align=center;verticalAlign=middle;resizable=0;points=[];autosize=1;strokeColor=none;fillColor=none;" vertex="1" parent="1">
          <mxGeometry x="210" y="398" width="100" height="30" as="geometry" />
        </mxCell>
        <mxCell id="wmaJupTZ_zYLlx8UUMlA-9" value="enters email_verification code" style="html=1;verticalAlign=bottom;endArrow=block;rounded=0;elbow=vertical;" edge="1" parent="1">
          <mxGeometry x="-0.1111" y="-20" width="80" relative="1" as="geometry">
            <mxPoint x="170" y="480" as="sourcePoint" />
            <mxPoint x="650" y="480" as="targetPoint" />
            <mxPoint as="offset" />
          </mxGeometry>
        </mxCell>
        <mxCell id="wmaJupTZ_zYLlx8UUMlA-10" value="&lt;font style=&quot;font-size: 10px;&quot;&gt;UC13 select interest&lt;/font&gt;" style="shape=umlFrame;whiteSpace=wrap;html=1;pointerEvents=0;" vertex="1" parent="1">
          <mxGeometry x="120" y="330" width="350" height="100" as="geometry" />
        </mxCell>
        <mxCell id="wmaJupTZ_zYLlx8UUMlA-11" value="&lt;font style=&quot;font-size: 11px;&quot;&gt;&amp;nbsp;$orgWeb, $category1,$category2, $category3, $category4, $category5)&lt;/font&gt;" style="text;whiteSpace=wrap;html=1;" vertex="1" parent="1">
          <mxGeometry x="680.68" y="490" width="309.32" height="50" as="geometry" />
        </mxCell>
      </root>
    </mxGraphModel>
  </diagram>
</mxfile>
